# xmcd
#
# Track frame offsets: 
#        150
#        15297
#        33847
#        48391
#        65501
#        80483
#        95859
#        111502
#        128813
#        146238
#        163947
#        178953
#
# Disc length: 2560 seconds
#
# Revision: 0
# Processed by: cddbd v1.5.2PL0 Copyright (c) Steve Scherf et al.
# Submitted via: ExactAudioCopyFreeDBPlugin 1.0
#
DISCID=ac09fe0c
DTITLE=Cook and Belle - Do I Dare
DYEAR=2003
DGENRE=Country
TTITLE0=Do I Dare
TTITLE1=I Can't Believe It's Over
TTITLE2=Anybody but Me
TTITLE3=Without You
TTITLE4=I Can't Stop
TTITLE5=Third Little Word
TTITLE6=Listen
TTITLE7=This Is the Dya
TTITLE8=Satisfied
TTITLE9=Another You Another Me
TTITLE10=Any Other Time
TTITLE11=Don't Fence Me In
EXTD=
EXTT0=
EXTT1=
EXTT2=
EXTT3=
EXTT4=
EXTT5=
EXTT6=
EXTT7=
EXTT8=
EXTT9=
EXTT10=
EXTT11=
PLAYORDER=
